<svg xmlns="http://www.w3.org/2000/svg" width="780" height="320" viewBox="0 0 780 320" role="img" aria-label="CP Forge dashboard preview">
  <defs>
    <linearGradient id="bg" x1="0" y1="0" x2="0" y2="1">
      <stop offset="0%" stop-color="#121a2e"/>
      <stop offset="100%" stop-color="#080b13"/>
    </linearGradient>
    <linearGradient id="accent" x1="0" y1="0" x2="1" y2="0">
      <stop offset="0%" stop-color="#42d392"/>
      <stop offset="100%" stop-color="#8bd3ff"/>
    </linearGradient>
  </defs>
  <rect width="780" height="320" rx="16" fill="url(#bg)"/>
  <rect x="24" y="24" width="180" height="272" rx="10" fill="#0d1321" stroke="#20283a"/>
  <text x="44" y="58" fill="#42d392" font-family="Inter,Arial,sans-serif" font-size="14" font-weight="700">CP Forge</text>
  <text x="44" y="88" fill="#8fa3c4" font-family="Inter,Arial,sans-serif" font-size="11">Home</text>
  <text x="44" y="112" fill="#eef4ff" font-family="Inter,Arial,sans-serif" font-size="11">Today</text>
  <text x="44" y="136" fill="#8fa3c4" font-family="Inter,Arial,sans-serif" font-size="11">Mindmap</text>
  <text x="44" y="160" fill="#8fa3c4" font-family="Inter,Arial,sans-serif" font-size="11">Sheets</text>
  <text x="44" y="184" fill="#8fa3c4" font-family="Inter,Arial,sans-serif" font-size="11">Mistakes</text>
  <rect x="220" y="24" width="536" height="88" rx="10" fill="#10182a" stroke="#25314a"/>
  <text x="240" y="54" fill="#8fa3c4" font-family="Inter,Arial,sans-serif" font-size="12">Goal: Amazon ť 45 days</text>
  <text x="240" y="82" fill="#ffffff" font-family="Inter,Arial,sans-serif" font-size="20" font-weight="700">Next: Sliding Window ť 3</text>
  <rect x="220" y="128" width="168" height="72" rx="10" fill="#10182a" stroke="#25314a"/>
  <rect x="404" y="128" width="168" height="72" rx="10" fill="#10182a" stroke="#25314a"/>
  <rect x="588" y="128" width="168" height="72" rx="10" fill="#10182a" stroke="#25314a"/>
  <text x="240" y="158" fill="#8fa3c4" font-family="Inter,Arial,sans-serif" font-size="11">Readiness</text>
  <text x="240" y="182" fill="#42d392" font-family="Inter,Arial,sans-serif" font-size="22" font-weight="700">68%</text>
  <text x="424" y="158" fill="#8fa3c4" font-family="Inter,Arial,sans-serif" font-size="11">Reviews due</text>
  <text x="424" y="182" fill="#8bd3ff" font-family="Inter,Arial,sans-serif" font-size="22" font-weight="700">4</text>
  <text x="608" y="158" fill="#8fa3c4" font-family="Inter,Arial,sans-serif" font-size="11">Weakest</text>
  <text x="608" y="182" fill="#ff8b8b" font-family="Inter,Arial,sans-serif" font-size="18" font-weight="700">DP</text>
  <rect x="220" y="216" width="350" height="80" rx="10" fill="#10182a" stroke="#25314a"/>
  <text x="240" y="242" fill="#8fa3c4" font-family="Inter,Arial,sans-serif" font-size="11">Skill tree</text>
  <rect x="240" y="252" width="120" height="8" rx="4" fill="#1a2438"/>
  <rect x="240" y="252" width="78" height="8" rx="4" fill="url(#accent)"/>
  <rect x="240" y="268" width="90" height="8" rx="4" fill="#1a2438"/>
  <rect x="240" y="268" width="34" height="8" rx="4" fill="#42d392"/>
  <rect x="590" y="216" width="166" height="80" rx="10" fill="#10182a" stroke="#25314a"/>
  <text x="610" y="242" fill="#8fa3c4" font-family="Inter,Arial,sans-serif" font-size="11">Topic chart</text>
  <rect x="610" y="254" width="18" height="34" rx="3" fill="#42d392"/>
  <rect x="634" y="262" width="18" height="26" rx="3" fill="#8bd3ff"/>
  <rect x="658" y="270" width="18" height="18" rx="3" fill="#ff8b8b"/>
  <rect x="682" y="276" width="18" height="12" rx="3" fill="#5b6f92"/>
</svg>
